<?xml version="1.0" encoding="UTF-8" standalone="no"?>
<!-- Created with Inkscape (http://www.inkscape.org/) -->

<svg
   xmlns:dc="http://purl.org/dc/elements/1.1/"
   xmlns:cc="http://creativecommons.org/ns#"
   xmlns:rdf="http://www.w3.org/1999/02/22-rdf-syntax-ns#"
   xmlns:svg="http://www.w3.org/2000/svg"
   xmlns="http://www.w3.org/2000/svg"
   xmlns:xlink="http://www.w3.org/1999/xlink"
   xmlns:inkscape="http://www.inkscape.org/namespaces/inkscape"
   version="1.1"
   width="16"
   height="16"
   id="svg2">
  <defs
     id="defs4">
    <linearGradient
       id="linearGradient3858">
      <stop
         id="stop3860"
         style="stop-color:#ff4444;stop-opacity:1"
         offset="0" />
      <stop
         id="stop3862"
         style="stop-color:#ff0000;stop-opacity:1"
         offset="1" />
    </linearGradient>
    <linearGradient
       id="linearGradient3885">
      <stop
         id="stop3887"
         style="stop-color:#222222;stop-opacity:1"
         offset="0" />
      <stop
         id="stop3889"
         style="stop-color:#444444;stop-opacity:1"
         offset="1" />
    </linearGradient>
    <linearGradient
       id="linearGradient3877">
      <stop
         id="stop3879"
         style="stop-color:#ffffff;stop-opacity:0.50196081"
         offset="0" />
      <stop
         id="stop3881"
         style="stop-color:#ffffff;stop-opacity:0"
         offset="1" />
    </linearGradient>
    <linearGradient
       id="linearGradient4641">
      <stop
         id="stop4643"
         style="stop-color:#1a1a1a;stop-opacity:0.27500001"
         offset="0" />
      <stop
         id="stop4645"
         style="stop-color:#000000;stop-opacity:0"
         offset="1" />
    </linearGradient>
    <clipPath
       id="clipPath4657">
      <rect
         width="15.5"
         height="15.5"
         ry="7.75"
         x="-5.75"
         y="-5.75"
         id="rect4659"
         style="fill:#c73fbf;fill-opacity:0.49397595;stroke:none" />
    </clipPath>
    <filter
       x="-0.38399997"
       y="-0.38400003"
       width="1.768"
       height="1.768"
       color-interpolation-filters="sRGB"
       id="filter4052">
      <feGaussianBlur
         id="feGaussianBlur4054"
         stdDeviation="0.384" />
    </filter>
    <linearGradient
       x1="11.5"
       y1="16.5"
       x2="11.5"
       y2="0.5"
       id="linearGradient3021"
       xlink:href="#linearGradient3885"
       gradientUnits="userSpaceOnUse" />
    <linearGradient
       x1="10.5"
       y1="16.5"
       x2="10.5"
       y2="0.5"
       id="linearGradient3023"
       xlink:href="#linearGradient3877"
       gradientUnits="userSpaceOnUse" />
    <linearGradient
       x1="14"
       y1="16"
       x2="14"
       y2="-3"
       id="linearGradient3025"
       xlink:href="#linearGradient4641"
       gradientUnits="userSpaceOnUse" />
    <filter
       x="-0.55199999"
       y="-0.55200005"
       width="2.1039999"
       height="2.1040001"
       color-interpolation-filters="sRGB"
       id="filter3854">
      <feGaussianBlur
         id="feGaussianBlur3856"
         stdDeviation="0.55199999" />
    </filter>
    <radialGradient
       cx="4.5"
       cy="4.5"
       r="1.2"
       fx="4.5"
       fy="4.5"
       id="radialGradient3864"
       xlink:href="#linearGradient3858"
       gradientUnits="userSpaceOnUse" />
  </defs>
  <metadata
     id="metadata7">
    <rdf:RDF>
      <cc:Work
         rdf:about="">
        <dc:format>image/svg+xml</dc:format>
        <dc:type
           rdf:resource="http://purl.org/dc/dcmitype/StillImage" />
        <dc:title />
      </cc:Work>
    </rdf:RDF>
  </metadata>
  <g
     transform="translate(0,-1036.3622)"
     id="layer1">
    <g
       id="g3035">
      <g
         id="g3866">
        <path
           d="m 15.25,8.5 a 7.75,7.75 0 1 1 -15.5,0 7.75,7.75 0 1 1 15.5,0 z"
           transform="translate(0.5,1035.8622)"
           id="path3757"
           style="fill:url(#linearGradient3021);fill-opacity:1;stroke:none" />
        <path
           d="m 15,8.5 a 7.5,7.5 0 1 1 -15,0 7.5,7.5 0 1 1 15,0 z"
           transform="translate(0.5,1035.8622)"
           id="path2987"
           style="fill:none;stroke:url(#linearGradient3023);stroke-width:0.5;stroke-miterlimit:4;stroke-opacity:0.497992;stroke-dasharray:none" />
        <path
           d="m 19,6.5 a 9.5,9.5 0 1 1 -19,0 9.5,9.5 0 1 1 19,0 z"
           inkscape:connector-curvature="0"
           transform="translate(6,1042.3622)"
           clip-path="url(#clipPath4657)"
           id="path3235"
           style="fill:url(#linearGradient3025);fill-opacity:1;stroke:none" />
        <path
           d="m 5.7,4.5 a 1.2,1.1999999 0 1 1 -2.4,0 1.2,1.1999999 0 1 1 2.4,0 z"
           transform="matrix(1.3333333,0,0,1.3333333,2.0000002,1034.3622)"
           id="path3780"
           style="fill:#ff0000;fill-opacity:1;stroke:none;filter:url(#filter3854)" />
        <rect
           width="16"
           height="16"
           ry="0"
           x="0"
           y="1036.3622"
           id="rect3009"
           style="fill:none;stroke:none" />
        <path
           d="m 5.7,4.5 a 1.2,1.1999999 0 1 1 -2.4,0 1.2,1.1999999 0 1 1 2.4,0 z"
           transform="matrix(1.3333333,0,0,1.3333333,2.0000002,1034.3622)"
           id="path4034"
           style="fill:#ff0000;fill-opacity:1;stroke:none;filter:url(#filter4052)" />
        <path
           d="m 5.7,4.5 a 1.2,1.1999999 0 1 1 -2.4,0 1.2,1.1999999 0 1 1 2.4,0 z"
           transform="matrix(1.3333333,0,0,1.3333333,2.0000002,1034.3622)"
           id="path3075"
           style="fill:url(#radialGradient3864);fill-opacity:1;stroke:none" />
        <text
           x="2.4285965"
           y="1048.6699"
           id="text3866"
           xml:space="preserve"
           style="font-size:6px;font-style:normal;font-weight:bold;line-height:125%;letter-spacing:0.16px;word-spacing:0px;fill:#ffffff;fill-opacity:1;stroke:none;font-family:Sans;-inkscape-font-specification:Monospace Bold"><tspan
             x="2.4285965"
             y="1048.6699"
             id="tspan3868"
             style="font-size:6px;font-style:normal;font-variant:normal;font-weight:bold;font-stretch:normal;letter-spacing:0.16px;fill:#ffffff;fill-opacity:1;font-family:Monospace;-inkscape-font-specification:Monospace Bold">TAP</tspan></text>
      </g>
    </g>
  </g>
</svg>
